PathFileType	4	(X/Y/Z)	Run_500 01
DataRate	CameraRate	NumFrames	NumMarkers	Units	OrigDataRate	OrigDataStartFrame	OrigNumFrames
120	120	7	42	mm	120	331	128
Frame#	Time	LASI			RASI			LPSI			RPSI			RTH1			RTH2			RTH3			LTH1			LTH2			LTH3			RTB1			RTB2			LTB1			LTB2			LTB3			RCAL			RTOE			RMT5			LCAL			LTOE			LMT5			LACR			RACR			CLAV			C7			RUA1			RUA2			RUA3			RLEL			LUA1			LUA2			LUA3			LLEL			LMEL			RFAsuperior			RFAradius			RFAulna			LFAsuperior			LFAradius			LFAulna			RMEL			RTB3		
		X1	Y1	Z1	X2	Y2	Z2	X3	Y3	Z3	X4	Y4	Z4	X5	Y5	Z5	X6	Y6	Z6	X7	Y7	Z7	X8	Y8	Z8	X9	Y9	Z9	X10	Y10	Z10	X11	Y11	Z11	X12	Y12	Z12	X13	Y13	Z13	X14	Y14	Z14	X15	Y15	Z15	X16	Y16	Z16	X17	Y17	Z17	X18	Y18	Z18	X19	Y19	Z19	X20	Y20	Z20	X21	Y21	Z21	X22	Y22	Z22	X23	Y23	Z23	X24	Y24	Z24	X25	Y25	Z25	X26	Y26	Z26	X27	Y27	Z27	X28	Y28	Z28	X29	Y29	Z29	X30	Y30	Z30	X31	Y31	Z31	X32	Y32	Z32	X33	Y33	Z33	X34	Y34	Z34	X35	Y35	Z35	X36	Y36	Z36	X37	Y37	Z37	X38	Y38	Z38	X39	Y39	Z39	X40	Y40	Z40	X41	Y41	Z41	X42	Y42	Z42	

331	  2.758333	1234.998491	1005.433181	-407.670177	1214.885981	1026.180370	-177.939513	1068.356330	1063.874082	-362.511258	1056.104640	1064.814480	-263.390614	1184.251002	872.554955	-113.569314	1304.216215	753.315013	-140.811636	1280.985154	650.453575	-159.130202	1129.413534	839.149537	-460.905933	1159.403558	723.911524	-421.972727	1046.445072	632.555132	-410.835203	1414.112408	458.346273	-220.287922	1373.579626	384.431031	-168.708082	897.155448	475.598779	-344.201935	800.226104	521.176292	-398.655136	699.031988	502.730117	-338.547531	1372.475471	126.239363	-284.335602	1582.083949	140.234438	-284.011954	1563.545825	 76.624669	-196.458813	622.100241	625.934747	-348.936694	521.820189	465.155174	-263.095139	468.908070	476.883815	-356.951871	1255.626836	1506.644152	-451.845834	1169.603119	1487.143405	-104.220750	1269.086786	1444.727528	-236.285534	1173.763881	1535.004738	-291.253980	1105.938929	1445.865750	-69.936113	1070.755537	1362.530627	-88.340514	1002.951250	1408.979604	-120.518445	911.946550	1330.756803	-110.504477	1236.954088	1440.223047	-515.692208	1167.802842	1396.369768	-519.658248	1228.971656	1340.242817	-548.879126	1158.208836	1245.694799	-603.103634	1102.006263	1242.436768	-553.134486	953.966982	1255.671093	-69.922422	1015.199473	1079.706874	-50.768516	956.676313	1058.136523	-77.000672	1236.551952	1249.090087	-565.327449	1342.992420	1285.354265	-407.082089	1352.470344	1220.266329	-411.710079	930.421309	1323.306907	-174.741326	1450.161749	281.785995	-233.532448	
332	  2.766667	1234.969079	1000.666917	-407.459355	1213.712676	1020.927840	-176.701556	1067.351360	1055.876685	-362.669817	1055.233964	1057.196477	-263.908321	1181.457703	866.852751	-115.484943	1302.136142	748.337434	-139.538124	1276.994764	645.161327	-160.129182	1133.273165	832.462001	-461.623725	1165.282103	718.771430	-425.056895	1054.547649	625.355158	-412.265263	1406.189294	448.121266	-222.438624	1364.862377	375.088212	-170.693313	907.770799	475.904467	-347.695428	814.419451	530.263437	-400.917373	712.668558	519.196075	-340.933085	1350.508420	119.054293	-285.328689	1560.164776	121.782904	-287.160141	1539.712173	 62.194830	-196.291913	644.206706	649.107646	-347.015725	533.263217	490.414557	-270.381806	483.755581	509.052824	-364.993122	1252.332344	1500.036471	-451.740253	1171.283655	1478.533471	-101.998507	1269.168556	1437.661860	-236.572560	1172.964892	1528.621702	-289.253069	1108.322198	1435.876752	-66.531221	1073.129972	1352.721432	-85.708387	1004.879684	1398.999951	-116.844960	914.540492	1319.641417	-105.101147	1230.824212	1434.354637	-515.155515	1160.652250	1392.127127	-517.784282	1220.218284	1334.612524	-548.746901	1146.242401	1243.740051	-602.544489	1090.787580	1242.124052	-551.521394	958.920527	1244.585848	-66.499700	1025.253807	1070.089618	-52.153002	966.719942	1047.586528	-76.931575	1224.666927	1240.653990	-565.675703	1338.514112	1260.801416	-408.965357	1341.406629	1195.740103	-417.232818	931.655345	1313.159255	-169.937246	1435.351337	269.776447	-235.208708	
333	  2.775000	1234.663997	995.208255	-407.399487	1212.749201	1015.048877	-175.417812	1066.455649	1047.324645	-363.067435	1054.362951	1048.570430	-265.051158	1179.278795	861.002401	-117.356557	1300.494014	742.461185	-139.309345	1273.327783	638.905573	-160.810975	1136.393147	825.452875	-462.764508	1170.823717	713.214470	-428.857427	1062.984608	617.394971	-413.780919	1397.718431	436.252734	-224.128514	1354.893973	364.978448	-172.460147	919.602930	475.875029	-351.885243	830.773204	538.790777	-403.885219	728.825681	534.433373	-343.548173	1321.856893	110.982815	-285.241650	1532.207712	103.042172	-291.577893	1510.586240	 50.405669	-196.119581	667.598643	670.450999	-345.250869	548.566392	513.347110	-277.689139	502.954641	537.417503	-373.139275	1248.634473	1492.940103	-451.666387	1172.916046	1469.206064	-99.910209	1269.157899	1430.218460	-236.892142	1171.764740	1521.496625	-287.295618	1110.644094	1424.455365	-63.334184	1076.028678	1341.349331	-82.926300	1006.229258	1386.947548	-111.854480	917.561307	1306.530106	-98.677138	1224.157987	1427.755105	-514.532569	1152.948141	1387.355161	-515.553833	1210.600599	1328.538295	-548.762033	1133.631997	1241.644240	-601.659834	1079.065782	1241.614456	-549.177916	964.741809	1231.662659	-62.356105	1036.747855	1059.421010	-53.578691	977.818209	1035.972419	-75.960993	1211.782834	1232.022822	-566.275542	1331.580861	1234.189176	-411.724329	1328.540024	1170.001918	-425.139300	932.724643	1301.170947	-164.302711	1416.347054	256.111448	-237.483603	
334	  2.783333	1234.012625	988.874234	-407.443261	1211.953172	1008.505606	-174.363672	1065.469406	1038.268041	-363.543659	1053.148781	1039.333653	-266.126546	1177.951283	854.388326	-118.721366	1298.973767	735.389545	-140.012161	1270.181688	631.435806	-161.454577	1138.632821	817.768439	-464.112760	1176.206233	706.982501	-433.094030	1071.919185	608.635374	-415.546495	1388.134696	423.282529	-226.171401	1342.798244	354.539181	-175.091805	932.758804	475.095217	-357.073844	849.165201	546.536899	-407.556372	747.248416	547.871118	-346.468797	1286.355806	102.315981	-285.805103	1498.079885	 87.925487	-296.296443	1475.888699	 43.535710	-196.127610	692.485814	689.454503	-344.039798	567.219689	533.828665	-284.782116	525.702134	561.806718	-381.142755	1244.529905	1485.573818	-451.592467	1174.541171	1459.497594	-98.010300	1269.126542	1422.430790	-237.222770	1170.231145	1513.684859	-285.397082	1112.863426	1412.003404	-60.354859	1079.560273	1328.649133	-80.057988	1007.259288	1372.945363	-105.624885	921.241207	1291.706244	-91.403765	1217.096177	1420.826266	-513.971337	1144.875724	1382.375274	-512.935462	1200.191045	1322.250569	-548.692526	1120.516854	1239.448179	-600.403892	1067.029080	1240.926636	-546.294713	971.808296	1217.190905	-57.793169	1049.806130	1048.147620	-55.006238	990.170912	1023.371581	-74.232600	1198.084445	1223.203784	-567.131233	1321.818472	1205.782747	-415.400673	1313.620582	1143.257248	-435.235538	934.077536	1287.463373	-158.112641	1392.690084	241.968277	-241.494584	
335	  2.791667	1232.896429	981.657552	-407.274837	1211.002832	1001.279475	-173.639619	1064.047486	1029.075490	-363.804682	1051.338361	1030.483645	-266.177576	1177.034104	846.700623	-119.383227	1296.957007	727.327656	-140.876542	1267.514240	623.027858	-162.518852	1140.149621	809.298907	-465.256210	1181.540764	700.055096	-437.415876	1081.468623	599.249575	-417.877059	1376.888274	410.426304	-229.635848	1327.884496	345.013945	-179.304556	947.515930	473.415994	-363.270621	869.363711	552.989785	-411.680953	767.674702	559.087248	-349.623071	1245.668502	 94.401094	-288.310392	1459.144494	 78.745425	-300.495455	1436.541558	 41.746646	-196.746450	719.091813	705.519986	-343.808199	588.565210	551.785956	-291.471334	551.297108	582.084830	-388.854745	1239.980989	1478.187253	-451.558038	1176.144517	1449.779663	-96.201680	1269.174912	1414.384891	-237.602023	1168.466306	1505.424641	-283.527774	1115.129974	1398.709450	-57.526443	1083.789665	1315.011393	-77.124280	1008.451396	1357.233967	-98.222344	925.821140	1275.393423	-83.430248	1209.637014	1413.985004	-513.509500	1136.523158	1377.380038	-509.898786	1189.136963	1315.990125	-548.290590	1107.031376	1237.158434	-598.697168	1054.930203	1239.978761	-543.145279	980.507180	1201.514126	-53.062162	1064.599499	1036.822128	-56.315211	1004.286891	1009.899976	-72.018985	1183.658836	1214.052163	-568.120482	1309.113397	1176.302293	-420.343472	1296.410902	1116.040447	-446.653637	936.036641	1272.148671	-151.445899	1365.115580	229.316004	-247.520238	
336	  2.800000	1231.151070	973.893427	-406.548328	1209.453305	993.537341	-173.063709	1061.888050	1020.542969	-363.555435	1049.023025	1023.184146	-264.676922	1175.506422	838.373773	-119.547749	1293.647286	718.857741	-141.202359	1264.662507	614.402081	-164.426887	1141.345210	800.493078	-465.784048	1186.947953	692.855230	-441.502009	1091.908354	589.559705	-420.990785	1363.670214	399.120247	-234.849410	1310.018365	337.841101	-184.761129	964.256898	471.072779	-369.905459	891.070861	557.539640	-415.887593	789.869467	567.866615	-352.876855	1202.860286	 89.084605	-292.876108	1417.925296	 75.002446	-303.913004	1394.536268	 43.122492	-198.270750	747.254843	718.264342	-344.873820	611.952928	567.014418	-297.604227	579.032594	598.034502	-396.212497	1234.996648	1471.064039	-451.612029	1177.682716	1440.421038	-94.307370	1269.369863	1406.362575	-238.101447	1166.612594	1497.211242	-281.654317	1117.842333	1384.655060	-54.834458	1088.818619	1300.955733	-74.161954	1010.452883	1340.296405	-89.682786	931.604017	1257.770925	-74.878691	1201.759431	1407.594053	-513.052321	1127.926568	1372.460979	-506.400829	1177.667795	1310.014494	-547.429191	1093.271542	1234.782133	-596.443744	1043.005298	1238.673808	-539.807482	991.174976	1185.102562	-48.345745	1081.295835	1026.048901	-57.461888	1020.789456	996.026771	-69.694131	1168.440026	1204.428432	-569.044549	1293.645756	1146.909715	-427.032027	1276.686907	1089.197683	-458.296146	938.782727	1255.422744	-144.183046	1335.327086	219.967162	-254.546128	
337	  2.808333	1228.638268	966.270023	-405.244438	1207.016912	985.802230	-172.209800	1058.961342	1013.631468	-362.696414	1046.576128	1018.119510	-262.016265	1172.230573	830.472286	-119.638639	1288.322416	710.620596	-141.011080	1260.342527	606.402568	-167.288809	1142.647834	792.365893	-465.565356	1192.754961	686.264497	-445.124228	1103.839231	580.052549	-424.789811	1348.397877	390.233105	-240.981191	1289.697595	333.644145	-190.288747	983.289854	468.590970	-375.899217	914.063207	559.812770	-419.870579	813.640949	574.177743	-356.131255	1160.772133	 87.403186	-298.550023	1376.757359	 74.297755	-306.750600	1351.988690	 45.167584	-200.553412	776.228018	727.707358	-347.297776	636.825275	579.050890	-303.129959	608.113015	609.346819	-403.186410	1229.683196	1464.509511	-451.753851	1179.150639	1431.808800	-92.246781	1269.683793	1398.886684	-238.787648	1164.861976	1489.712853	-279.834626	1121.504996	1370.244721	-52.376785	1094.828707	1287.131210	-71.311611	1013.935376	1323.019250	-80.227779	938.992758	1239.175896	-65.912651	1193.566719	1401.941671	-512.486056	1119.181649	1367.709940	-502.416426	1166.067914	1304.641625	-546.155416	1079.291326	1232.405876	-593.585066	1031.400295	1237.012015	-536.054764	1004.012608	1168.711409	-43.800237	1100.004192	1016.504334	-58.547322	1040.109365	982.718586	-67.662017	1152.324123	1194.500119	-569.737345	1275.800252	1118.879320	-435.629952	1254.267840	1063.759948	-469.419895	942.522430	1237.728770	-136.188722	1304.942864	214.461986	-261.001656	
